:SAMPLES-PER-SECOND 30
:FRAME-RANGE 1-3535
:FULLY-SPECIFIED
:DEGREES
2431
root  34.6068 39.1047 -71.0186 11.5171 -78.086 -1.45941
RightUpLeg  -4.02373 -7.09639 -5.11356
RightLeg  14.4345 -4.6299 -1.15991
RightFoot  -17.5625 0.423922 9.97531
RightToes  5.38503e-012 1.26228e-014 -6.01869e-014
Spine  0.242388 5.0401 10.7348
Spine1  6.9998 6.02759 -4.61253
HEad  -7.00789 43.6894 -14.133
LeftShoulder1  0.347236 2.17448 -24.7575
LeftArm  -3.46705 15.8841 -51.5347
LeftForeArm  37.3347 4.36784 -12.6344
LeftHand  -0.0299054 5.22577 3.88998
RightShoulder  1.97145 3.99629 20.7112
RightArm  -23.8078 28.128 42.8615
RightForeArm  54.9848 -5.80093 3.33661
RightHand  0.0179946 -5.53666 -21.3429
LeftUpLeg  -31.0904 1.56781 4.39261
LeftLeg  -2.52233 9.99398 1.33377
LeftFoot  0.708008 0.911425 -8.66619
LeftToes  8.9788e-011 3.29689e-010 2.1201e-011
2432
root  33.6641 38.8622 -70.5965 14.9667 -78.4412 -4.76851
RightUpLeg  -2.47085 -7.12308 -5.11016
RightLeg  14.2478 -3.97234 -0.930194
RightFoot  -18.7379 0.558233 10.5809
RightToes  5.38503e-012 1.26228e-014 -6.01869e-014
Spine  0.0543139 5.22051 10.4417
Spine1  7.48679 6.25165 -4.77008
HEad  -7.94764 43.6186 -13.4685
LeftShoulder1  0.360396 2.1257 -24.5946
LeftArm  -3.70986 16.5249 -51.3169
LeftForeArm  37.9038 4.78651 -12.5748
LeftHand  -0.0281358 5.28763 3.88433
RightShoulder  2.02479 4.11974 21.0035
RightArm  -22.6615 28.8505 46.026
RightForeArm  54.9077 -5.31188 3.63083
RightHand  0.0681773 -5.80149 -21.6706
LeftUpLeg  -32.0336 1.95024 4.79563
LeftLeg  -0.689225 10.2348 1.64013
LeftFoot  -0.130106 0.687085 -6.98824
LeftToes  8.9788e-011 3.29689e-010 2.1201e-011
2433
root  32.6965 38.7118 -70.1116 16.7251 -78.8508 -6.39093
RightUpLeg  -0.345997 -6.89623 -5.54536
RightLeg  12.957 -3.60782 -0.828429
RightFoot  -19.0706 0.643341 11.4103
RightToes  5.38503e-012 1.26228e-014 -6.01869e-014
Spine  -0.286293 5.31082 9.57695
Spine1  8.32318 6.5598 -5.12284
HEad  -8.91549 43.1466 -12.5722
LeftShoulder1  0.36363 2.11486 -24.5875
LeftArm  -3.70542 16.9707 -50.898
LeftForeArm  38.2353 5.0958 -12.5778
LeftHand  -0.0293389 5.33875 3.71613
RightShoulder  2.09823 4.32832 21.241
RightArm  -21.5981 28.999 49.4237
RightForeArm  55.6228 -5.15756 3.79782
RightHand  0.0577244 -5.74188 -21.8317
LeftUpLeg  -33.1429 1.86413 4.78466
LeftLeg  3.32075 9.83538 2.52006
LeftFoot  3.09338 0.795398 -6.42581
LeftToes  8.9788e-011 3.29689e-010 2.1201e-011
2434
root  31.7138 38.5876 -69.558 16.8148 -79.0246 -6.39107
RightUpLeg  1.3619 -6.57516 -6.3195
RightLeg  12.8163 -3.18232 -1.00877
RightFoot  -19.0843 0.745932 12.8936
RightToes  5.38503e-012 1.26228e-014 -6.01869e-014
Spine  0.0346803 5.25805 8.25551
Spine1  8.19867 6.59891 -5.26115
HEad  -10.4157 42.5341 -12.1868
LeftShoulder1  0.307112 2.31058 -24.9374
LeftArm  -3.45588 16.9627 -50.0224
LeftForeArm  37.8263 5.32862 -12.6441
LeftHand  -0.0281899 5.28687 3.69044
RightShoulder  2.13912 4.30576 21.9028
RightArm  -20.7529 28.8978 52.9585
RightForeArm  57.9691 -5.76309 3.67483
RightHand  -4.36741e-005 -5.43732 -21.4938
LeftUpLeg  -34.1328 1.25988 4.66472
LeftLeg  7.03953 8.84103 2.81959
LeftFoot  7.5455 0.792101 -5.03757
LeftToes  8.9788e-011 3.29689e-010 2.1201e-011
2435
root  30.6976 38.4925 -68.9756 13.9829 -77.8479 -3.24864
RightUpLeg  2.45124 -6.79866 -7.46307
RightLeg  14.2788 -3.12357 -1.24886
RightFoot  -18.7956 0.845763 14.8739
RightToes  5.38503e-012 1.26228e-014 -6.01869e-014
Spine  0.138193 5.00122 6.66744
Spine1  7.8617 6.23206 -5.08444
HEad  -11.8629 41.0983 -11.7172
LeftShoulder1  0.385263 2.05893 -24.9686
LeftArm  -3.36093 15.709 -49.4888
LeftForeArm  37.0783 6.35469 -12.6375
LeftHand  -0.0295091 5.2375 3.66304
RightShoulder  2.19544 4.31087 22.6715
RightArm  -20.5171 27.4414 56.0329
RightForeArm  60.6054 -5.6511 3.52946
RightHand  0.0385361 -5.6475 -21.3971
LeftUpLeg  -35.3971 0.0353269 4.01167
LeftLeg  11.6444 8.22242 2.68493
LeftFoot  7.36533 0.742782 -4.78112
LeftToes  8.9788e-011 3.29689e-010 2.1201e-011
2436
root  29.7476 38.4805 -68.3778 13.5594 -76.864 -2.57793
RightUpLeg  2.83289 -6.0211 -8.09652
RightLeg  16.6598 -3.42235 -1.52987
RightFoot  -17.6078 0.850185 17.5999
RightToes  5.38503e-012 1.26228e-014 -6.01869e-014
Spine  -0.0849649 5.23022 6.49204
Spine1  8.32056 6.65494 -5.77711
HEad  -12.3585 39.0735 -11.2299
LeftShoulder1  0.504234 1.65091 -24.511
LeftArm  -4.04178 13.9226 -49.9845
LeftForeArm  37.5348 6.82459 -12.3163
LeftHand  -0.0250137 5.42495 3.3017
RightShoulder  2.25993 4.47202 22.9215
RightArm  -19.8347 25.145 58.5341
RightForeArm  62.1428 -5.65588 3.87661
RightHand  0.161282 -6.30507 -21.568
LeftUpLeg  -35.7439 -0.278495 3.21234
LeftLeg  14.5721 7.18496 2.54153
LeftFoot  7.05908 0.64891 -4.27142
LeftToes  8.9788e-011 3.29689e-010 2.1201e-011
2437
root  28.8717 38.5448 -67.8132 14.1897 -76.2272 -3.20522
RightUpLeg  2.16841 -3.26099 -8.06911
RightLeg  20.7977 -4.90956 -2.27204
RightFoot  -15.4536 0.6457 20.7188
RightToes  5.38503e-012 1.26228e-014 -6.01869e-014
Spine  -0.0815986 5.51118 6.36339
Spine1  8.67008 7.1329 -6.33249
HEad  -11.379 37.9478 -10.6276
LeftShoulder1  0.484391 1.69917 -24.1759
LeftArm  -4.01198 12.4303 -50.5115
LeftForeArm  37.1565 5.99072 -12.2443
LeftHand  -0.0229857 5.51391 3.27387
RightShoulder  2.3433 4.66182 23.3013
RightArm  -17.6809 23.5642 60.5729
RightForeArm  65.2005 -5.74927 5.10259
RightHand  0.255648 -6.84188 -21.1799
LeftUpLeg  -35.4906 -0.444752 2.54766
LeftLeg  16.8101 6.16686 2.43467
LeftFoot  6.15489 0.228998 -1.73169
LeftToes  8.9788e-011 3.29689e-010 2.1201e-011
